<svg xmlns="http://www.w3.org/2000/svg" viewBox="0 0 998.62 1064.69"><defs><style>.cls-1{fill:#f9e9f1;stroke:#eed5dd;}.cls-1,.cls-2,.cls-3{stroke-miterlimit:10;stroke-width:73.41px;}.cls-2{fill:#e9aebb;stroke:#dc8d99;}.cls-3{fill:#7ba9d9;stroke:#5d86ba;}</style></defs><g id="Livello_2" data-name="Livello 2"><g id="Livello_7" data-name="Livello 7"><path class="cls-1" d="M914.74,309.54c23,38.08,36.77,79.14,43.08,123.26a363.26,363.26,0,0,1,3.87,65.62c-.61,15.8-3.25,31.53-5,47.28-10.61,17.57-26.9,27.15-45.57,34.55-46.18,18.3-94.21,29.46-142.72,39.1C691,634.75,612.58,641.16,533.83,643.3a1258.93,1258.93,0,0,1-134.67-3.69q-54.65-4.38-108.57-13.42c-51.78-8.62-102.76-20.91-153.09-35.78-14.59-4.31-28.95-9.48-43.31-14.56-23.71-8.38-40.25-25-52.28-46.52-8.34-30.18-6.23-59.92,3.27-89.51,17-53.05,44.78-100.2,78.42-144.19,7,4.66,13.16-.3,19.22-2.15,22.83-7,46.39-7,69.09-3.27,45.59,7.45,81.35,32.2,109,69.13,30.24,40.44,71.47,60,121.35,62.42,36.13,1.78,70.87-3.8,105.44-15.22,50-16.53,94.56-41.3,132.63-77.7,10.53-10.07,22.7-17.8,35.84-24,40-18.89,81.59-18.75,123.86-10.27Z"/><path class="cls-2" d="M914.74,309.54l-74.75-15c-42.27-8.48-83.86-8.62-123.86,10.27-13.14,6.22-25.31,13.95-35.84,24-38.07,36.4-82.59,61.17-132.63,77.7-34.57,11.42-69.31,17-105.44,15.22-49.88-2.46-91.11-22-121.35-62.42-27.61-36.93-63.37-61.68-109-69.13-22.7-3.71-46.26-3.69-69.09,3.27-6.06,1.85-12.25,6.81-19.22,2.15C144.5,266.05,168.47,239,193.52,213c36.73-38.13,76.22-73.19,119.83-103.44C350.73,83.63,390,61.2,433.4,47c36.84-12,74.66-12.48,112.79-6.69,40,6.09,73.62,25.12,104.4,50.39,41.12,33.78,81.42,68.85,128.52,94.37,32.26,17.47,63.52,36.1,89.33,62.53C887.22,267.36,916.07,311.58,914.74,309.54Z"/><path class="cls-3" d="M956.71,545.7c6.15-6-25.37,25.41-45.57,34.55-45.26,20.48-94.21,29.46-142.72,39.1C691,634.75,612.58,641.16,533.83,643.3a1258.93,1258.93,0,0,1-134.67-3.69q-54.66-4.38-108.57-13.42c-51.78-8.62-102.76-20.91-153.09-35.78-14.59-4.31-28.95-9.48-43.3-14.56-23.72-8.38-40.26-25-52.29-46.52,0-2.6,1,62.56-.5,95.85-1.14,25.68,9.94,42.83,30.78,55.3,13,7.75,26.12,15.17,39.18,22.74,7.73,21,26.45,64.8,27.08,66.12,22.69,47.41,46.53,94.19,77.73,136.77,25.45,34.74,53.94,66.14,93.53,85.38,53.08,25.78,109.72,35.23,168.14,36.33,39.29.74,78.52-.79,117.32-7.09,38.48-6.24,75.54-17,109.19-37.76,30.67-19,54.36-45.09,76.6-72.69a683.46,683.46,0,0,0,89.58-145.34c1.23-2.72,29.49-71.18,27.49-66.32-.07,0,22.57-14.65,32.26-21.26,17.84-12.18,27.16-28.58,26.55-50.89C956.09,599.57,956.69,572.63,956.71,545.7Z"/></g></g></svg>